<svg viewBox="0 0 935 191" xmlns:xlink="http://www.w3.org/1999/xlink" xmlns="http://www.w3.org/2000/svg" width="935" height="191" fill="none"><path fill="#C6FE1E" d="M96.095 32.797c-34.62 0-62.689 28.059-62.689 62.669s28.068 62.669 62.69 62.669c34.62 0 62.688-28.059 62.688-62.67 0-34.61-28.068-62.668-62.689-62.668Z"/><mask id="a" width="95" height="80" x="52" y="60" maskUnits="userSpaceOnUse" style="mask-type:luminance"><path fill="#fff" d="M146.246 60.998H52.213v78.336h94.033V60.998Z"/></mask><g fill="#0D0D0D" mask="url(#a)"><path d="M88.614 79.071h-.042c-2.59-.743-5.332.744-6.21 3.2-.97 2.641.568 5.666 3.285 6.502 6.653 1.888 9.512-7.646 2.967-9.702Z"/><path d="M145.318 92.55c-8.567-18.76-35.9-10.997-38.424-15.91-7.397-11.607-21.206-18.124-36.134-14.765-2.299-.92-10.214-1.17-15.33 2.047l3.085 1.362c.234.1.167.075.51.2 1.395.527 1.153.377.15.928-2.299 1.345-5.166 2.908-6.954 5.256.075.108 3.937 1.036 3.937 1.036.066.017.785.092.627.41-12.63 19.937 8.667 50.026 19.007 66.22h29.932c-4.623-8.272-9.905-19.561-8.1-27.224.326-1.387.744-3.15 2.449-3.384 4.121-.66 9.638-.601 13.566-1.044h.059c.836-.042 21.297-2.641 26.195 10.11.418 1.17 1.38.41 1.764-.359 3.653-7.261 6.01-18.692 3.678-24.875l-.017-.009Zm-33.033-6.159c-1.437 2.565-2.415 5.9-2.666 8.807-.134 1.847.058 3.668.242 5.515.101 1.019.109 2.306-.71 2.975-.711.601-1.889.66-3.076.743-5.826-.025-20.036 0-25.51-3.726l-.034-.025c-7.966-4.855-12.229-15.818-7.498-24.333 1.53-2.89 4.347-4.771 7.557-5.481 4.129-.945 8.676-.243 12.362 1.688 1.504.76 3.302 1.763 4.672 2.916 2.717 2.373 5.04 4.838 8.601 5.598 1.639.468 3.344.401 4.982.736 3.068.735 2.299 2.481 1.07 4.57l.008.017Z"/></g><path fill="#fff" d="M191.592 123.917V52.784h24.449c7.171 0 13.423 1.429 18.756 4.278 5.333 2.858 9.47 6.927 12.438 12.216 2.959 5.29 4.438 11.665 4.438 19.119 0 7.453-1.479 13.929-4.438 19.218-2.959 5.289-7.122 9.334-12.488 12.116-5.366 2.783-11.635 4.178-18.807 4.178H191.6l-.008.008Zm13.691-8.464-5.115-4.596h14.836c4.388 0 8.267-.802 11.652-2.406 3.377-1.605 6.043-4.036 7.991-7.312 1.947-3.275 2.925-7.52 2.925-12.742 0-5.223-.961-9.192-2.875-12.534-1.914-3.343-4.564-5.85-7.941-7.52-3.377-1.672-7.263-2.507-11.652-2.507h-15.672l5.851-4.178v53.795Zm78.77 9.718c-5.291 0-9.946-1.136-13.95-3.393-4.004-2.264-7.122-5.397-9.353-9.4-2.232-4.002-3.344-8.648-3.344-13.946s1.112-9.935 3.344-13.946c2.231-4.002 5.341-7.136 9.353-9.4 4.004-2.265 8.651-3.393 13.95-3.393 5.3 0 9.939 1.137 13.951 3.393 4.003 2.264 7.121 5.398 9.353 9.4 2.232 4.002 3.343 8.657 3.343 13.946s-1.111 9.944-3.343 13.946c-2.232 4.003-5.35 7.136-9.353 9.4-4.004 2.265-8.66 3.393-13.951 3.393Zm0-13.269c3.762 0 6.829-1.237 9.195-3.71 2.365-2.474 3.552-5.724 3.552-9.768 0-4.045-1.187-7.312-3.552-9.819-2.366-2.506-5.433-3.76-9.195-3.76-3.761 0-6.812 1.237-9.144 3.71-2.332 2.474-3.502 5.732-3.502 9.768 0 4.036 1.162 7.312 3.502 9.819 2.332 2.506 5.383 3.76 9.144 3.76Zm55.87 13.319c-4.664 0-8.777-1.153-12.329-3.443-3.552-2.289-6.302-5.464-8.258-9.509-1.948-4.035-2.926-8.673-2.926-13.887s.995-9.935 2.976-13.946c1.989-4.003 4.756-7.12 8.308-9.35 3.553-2.231 7.623-3.343 12.22-3.343 4.598 0 8.459 1.045 11.803 3.134 3.343 2.089 5.951 5.114 7.84 9.091 1.889 3.977 2.825 8.774 2.825 14.414 0 5.64-.936 10.152-2.825 14.155-1.881 4.002-4.514 7.119-7.891 9.35-3.376 2.231-7.297 3.342-11.752 3.342l.009-.008Zm2.407-12.634c3.552 0 6.444-1.304 8.676-3.919 2.232-2.607 3.344-6.008 3.344-10.186s-1.112-7.679-3.344-10.286c-2.232-2.607-5.115-3.919-8.676-3.919s-6.361 1.304-8.618 3.92c-2.265 2.606-3.393 6.007-3.393 10.185 0 4.178 1.128 7.587 3.393 10.236 2.266 2.649 5.132 3.969 8.618 3.969Zm14.836 11.381-3.443-12.116h.936V86.266h-.936V52.842h13.691v71.126h-10.248Zm42.102 1.203c-5.291 0-9.947-1.136-13.95-3.393-4.004-2.264-7.122-5.397-9.353-9.4-2.232-4.002-3.344-8.648-3.344-13.946s1.112-9.935 3.344-13.946c2.231-4.002 5.341-7.136 9.353-9.4 4.003-2.265 8.651-3.393 13.95-3.393 5.299 0 9.938 1.137 13.951 3.393 4.003 2.264 7.121 5.398 9.353 9.4 2.231 4.002 3.343 8.657 3.343 13.946s-1.112 9.944-3.343 13.946c-2.232 4.003-5.35 7.136-9.353 9.4-4.004 2.265-8.66 3.393-13.951 3.393Zm0-13.269c3.761 0 6.829-1.237 9.195-3.71 2.365-2.474 3.552-5.724 3.552-9.768 0-4.045-1.187-7.312-3.552-9.819-2.366-2.506-5.434-3.76-9.195-3.76s-6.812 1.237-9.144 3.71c-2.332 2.474-3.502 5.732-3.502 9.768 0 4.036 1.161 7.312 3.502 9.819 2.332 2.506 5.383 3.76 9.144 3.76Zm75.987-21.826h13.374c4.037 0 7.247-1.044 9.612-3.133 2.366-2.09 3.553-5.047 3.553-8.874 0-4.036-1.171-7.086-3.503-9.142-2.332-2.055-5.525-3.083-9.562-3.083h-13.582l2.925-3.025v61.098h-13.691V52.784h25.594c5.224 0 9.754 1.061 13.582 3.183 3.829 2.123 6.829 5.064 8.986 8.824 2.156 3.76 3.243 8.18 3.243 13.27 0 5.088-1.078 9.416-3.243 13.21-2.157 3.794-5.174 6.735-9.036 8.824-3.861 2.089-8.375 3.133-13.532 3.133h-14.728v-13.16l.008.008Zm65.08 35.304c-3.762 0-7.072-.719-9.93-2.139-2.859-1.429-5.049-3.443-6.587-6.058-1.529-2.607-2.298-5.657-2.298-9.141 0-3.485.819-6.51 2.457-9.092 1.638-2.573 3.878-4.579 6.737-6.008 2.859-1.428 6.093-2.139 9.713-2.139 4.948 0 8.968 1.137 12.069 3.393 3.101 2.264 5.208 5.481 6.319 9.659l-6.369-.835V90.695c0-1.947-.694-3.694-2.09-5.223-1.395-1.529-3.661-2.298-6.787-2.298-1.947 0-4.112.226-6.478.677-2.365.451-4.839 1.304-7.422 2.557l-4.079-10.027c2.993-1.462 6.177-2.607 9.562-3.443a42.259 42.259 0 0 1 10.189-1.253c4.664 0 8.534.836 11.602 2.507 3.068 1.671 5.366 3.969 6.896 6.893 1.529 2.925 2.298 6.267 2.298 10.028v32.796h-10.866l-2.925-9.709 6.478-1.88c-1.187 4.111-3.36 7.311-6.528 9.609-3.168 2.298-7.155 3.443-11.961 3.443v.008Zm3.761-10.445c2.508 0 4.53-.627 6.06-1.88 1.53-1.253 2.298-2.925 2.298-5.013 0-2.089-.768-3.844-2.298-5.064-1.53-1.22-3.552-1.83-6.06-1.83-2.508 0-4.53.61-6.06 1.83-1.53 1.22-2.299 2.908-2.299 5.064 0 2.155.769 3.76 2.299 5.013 1.53 1.253 3.552 1.88 6.06 1.88Zm48.138 4.278-20.379-46.375h14.001l18.907 43.133-12.538 3.242h.009Zm-11.702 24.55 31.244-70.925h14l-31.244 70.925h-14Zm50.953-19.845V72.846h10.239l2.825 9.819-4.388-.21a37.153 37.153 0 0 1 5.951-5.53 27.813 27.813 0 0 1 7.055-3.811 22.952 22.952 0 0 1 7.991-1.412c3.485 0 6.269.593 8.358 1.771 2.09 1.187 3.636 2.783 4.648 4.805 1.011 2.022 1.705 4.303 2.089 6.843a52.61 52.61 0 0 1 .577 7.888v30.917h-13.691V92.909c0-3.134-.627-5.223-1.881-6.267-1.254-1.044-2.75-1.57-4.497-1.57-2.507 0-4.948.751-7.314 2.247a20.558 20.558 0 0 0-5.951 5.69l-1.772-7.102h3.444v38.019h-13.691l.008-.008Zm63.216 0V92.9c0-3.133-.611-5.222-1.831-6.266-1.22-1.045-2.7-1.571-4.438-1.571-2.508 0-4.949.752-7.314 2.247a20.532 20.532 0 0 0-5.951 5.69l-3.444-10.544a35.783 35.783 0 0 1 6.01-5.532 28.829 28.829 0 0 1 7.104-3.81 22.956 22.956 0 0 1 7.991-1.412c3.411 0 6.169.593 8.258 1.771 2.09 1.187 3.661 2.783 4.698 4.805 1.045 2.022 1.755 4.303 2.14 6.843.384 2.54.576 5.172.576 7.888v30.917h-13.791l-.008-.008Zm44.893 1.044c-5.082 0-9.546-1.095-13.374-3.292-3.828-2.189-6.787-5.273-8.877-9.242-2.089-3.969-3.134-8.631-3.134-13.996 0-5.364 1.045-9.935 3.134-13.946 2.09-4.002 5.049-7.136 8.877-9.4 3.828-2.265 8.292-3.393 13.374-3.393 5.082 0 9.629 1.153 13.424 3.443 3.794 2.298 6.737 5.448 8.826 9.45 2.09 4.003 3.135 8.582 3.135 13.737 0 .77-.017 1.513-.05 2.248-.034.735-.126 1.345-.26 1.83h-39.285V92.165h28.938l-2.09 4.913c0-4.32-1.028-7.837-3.084-10.545-2.057-2.715-5.241-4.077-9.563-4.077-3.761 0-6.787 1.17-9.094 3.5-2.298 2.332-3.443 5.449-3.443 9.35v5.533c0 4.111 1.162 7.328 3.502 9.659 2.332 2.331 5.517 3.501 9.562 3.501 3.552 0 6.336-.735 8.359-2.189 2.022-1.462 3.761-3.276 5.224-5.431l9.512 5.431c-2.299 4.245-5.417 7.503-9.353 9.768-3.937 2.264-8.693 3.392-14.26 3.392v-.008Zm61.82-53.269c3.486 0 6.286.594 8.409 1.772 2.123 1.186 3.728 2.782 4.806 4.804 1.078 2.022 1.789 4.304 2.14 6.844.351 2.54.518 5.172.518 7.888v30.917h-13.691V92.9c0-3.133-.611-5.222-1.831-6.267-1.22-1.044-2.767-1.57-4.647-1.57-1.739 0-3.519.334-5.333.994a18.454 18.454 0 0 0-5.065 2.824 20.4 20.4 0 0 0-4.021 4.128l-1.772-7.102h3.444v38.019H770.68V72.855h10.239l2.825 9.818-4.388-.209a32.268 32.268 0 0 1 6.219-5.532 31.827 31.827 0 0 1 7.472-3.81 24.906 24.906 0 0 1 8.359-1.412l.008-.017Zm21.6 13.787V72.848h32.807V85.48h-32.807Zm24.866 39.374c-5.224 0-9.353-1.371-12.379-4.128-3.025-2.749-4.547-7.153-4.547-13.211v-34.05l-.209-.627 2.826-12.016h11.075v44.496c0 2.231.535 3.852 1.621 4.854 1.078 1.011 2.458 1.513 4.129 1.513 1.112 0 2.123-.084 3.026-.259a25.8 25.8 0 0 0 2.407-.577v12.743a18.303 18.303 0 0 1-3.552.936c-1.254.2-2.717.317-4.388.317l-.009.009Zm34.061.417c-3.903 0-7.614-.802-11.125-2.406-3.519-1.605-6.637-4.387-9.353-8.356l8.358-7.312c2.232 2.507 4.372 4.304 6.428 5.382 2.056 1.077 4.372 1.621 6.946 1.621 1.739 0 3.135-.418 4.179-1.254 1.045-.835 1.572-1.88 1.572-3.133 0-.836-.276-1.579-.836-2.248-.56-.66-1.588-1.303-3.084-1.93-1.497-.627-3.678-1.287-6.528-1.989-5.291-1.395-9.262-3.292-11.911-5.69-2.65-2.407-3.971-5.8-3.971-10.186 0-2.992.769-5.724 2.299-8.197 1.53-2.473 3.745-4.437 6.637-5.9 2.892-1.462 6.319-2.189 10.289-2.189 4.664 0 8.651.903 11.961 2.716 3.31 1.813 5.968 4.002 7.991 6.584l-8.877 7.42c-1.321-1.395-3.026-2.607-5.115-3.66-2.09-1.052-4.531-1.57-7.314-1.57-1.53 0-2.892.35-4.079 1.044-1.187.694-1.772 1.705-1.772 3.025 0 1.253.644 2.298 1.931 3.133 1.287.836 3.778 1.705 7.472 2.608 6.269 1.462 10.766 3.442 13.474 5.949 2.708 2.507 4.079 5.849 4.079 10.027 0 3.342-.869 6.25-2.608 8.724-1.738 2.473-4.095 4.386-7.054 5.748-2.959 1.354-6.286 2.039-9.98 2.039h-.009Z"/></svg>